<svg width="802" height="584" viewBox="0 0 802 584" fill="none" xmlns="http://www.w3.org/2000/svg">
<path d="M714.046 209C714.046 209 823.001 216.059 797.546 155.5C706.335 -61.5 130.047 -22.9999 101.547 104C93.3694 140.438 165.047 175.5 165.047 175.5C165.047 175.5 -13.4042 187.884 -3.45349 261C4.14111 316.804 113.047 346 113.047 346C113.047 346 32.0777 366.925 53.0462 416C100.047 526 849.633 696.906 714.046 476C671.86 407.268 565.546 332.5 565.546 332.5C565.546 332.5 723.801 380.388 739.046 321C750.189 277.592 714.046 209 714.046 209Z" fill="#DEF6D5"/>
</svg>
